<svg id="Capa_1" data-name="Capa 1" xmlns="http://www.w3.org/2000/svg" viewBox="0 0 1062 2212"><defs><style>.cls-1{fill:#fefefe;}.cls-2{fill:#076fb7;}.cls-3{fill:#3c802b;}.cls-4{fill:#bf80be;}.cls-5{fill:#265d76;}.cls-6{fill:#3c7f26;}.cls-7{fill:#bf4f14;}.cls-8{fill:#fdfd01;}.cls-9{fill:#3d7e22;}.cls-10{fill:#3b802b;}.cls-11{fill:#0570be;}.cls-12{fill:#fefdfe;}.cls-13{fill:#fdfdfc;}</style></defs><path class="cls-1" d="M1396.85,894.1q65.22,0,130.44-.08c2.92,0,4.2.51,3.54,3.56a7.41,7.41,0,0,0,0,1.49q0,1101,.12,2201.93c0,4.48-1.23,5-5.21,5q-260.89-.16-521.78-.09c.6-1.06,1.69-.86,2.64-1.06,25.91-5.59,43.19-29.26,41.24-56.45-1.8-25.06-23.37-46-49.13-47.38-3-.16-4.11-.9-4-4,.23-7.33.14-14.66.18-22,9.16,0,18.33-.17,27.49,0,2.75,0,3.68-.68,3.66-3.57q-.16-32.49,0-65c0-2.9-.92-3.59-3.67-3.56-9.16.13-18.32,0-27.48,0,0-10.64,0-21.27-.17-31.9-.05-2.93.84-3.8,3.85-4.24,24.66-3.59,42.17-20.46,46-45,1.6-10.4.72-20.86-5.44-30.1.7-1.48,1.34-3,2.13-4.44,6.72-12.16,8.81-25.06,5.06-38.45-6-21.63-20-35-42.4-39-2.93-.53-4.07-1.52-4-4.69.23-7.3,0-14.62,0-21.93,7.48,0,15-.2,22.46-.08,2.69,0,3.73-.55,3.72-3.51q-.19-32.46,0-64.93c0-3.4-1.33-3.7-4.09-3.66-7.65.1-15.3,0-23-.09-.08-11.29-.06-22.58-.31-33.87-.07-3,.72-4.55,3.68-5.9,15.47-7.1,22.37-23.46,16.48-38.93-3.71-9.75-11-15.89-20.82-19.18-.1-13.49-.22-27-.29-40.49,0-8.3-.85-6.89,6.78-6.86q198.95.66,397.88,1.39c14,.05,28,.13,42,.09,2.54,0,4,.36,4,3.47-.19,13.83-.18,27.65-.24,41.48a13.78,13.78,0,0,1-1.82.77c-14.65,4.07-24.14,15.57-24.42,29.59s8.65,25.89,23.34,30.42c2.81.87,3.15,2.26,3.14,4.63-.08,11.14-.07,22.28-.09,33.42-10.47,0-20.94.21-31.4,0-3.33-.06-4.1,1-4.08,4.16q.2,31.92,0,63.83c0,3.19.75,4.22,4.08,4.16,10.46-.18,20.93,0,31.4,0,0,7.16-.2,14.32.14,21.46.17,3.67-1.15,4.86-4.59,5.36a47.85,47.85,0,0,0-25.58,12.48c-14.87,13.51-23.64,37.4-12,62.52-4.46,9.89-6.74,20.25-4.92,31,4,23.53,19.22,39.11,42.72,44.18,2.78.6,4.2,1.61,4.14,4.88-.24,12.62-.16,25.25-.2,37.87-10.29,0-20.59.16-30.88,0-3,0-4.35.34-4.31,3.92q.27,32.13,0,64.26c0,3.58,1.36,4,4.31,3.92,10.29-.11,20.59,0,30.88.05,0,2.83.21,5.66.09,8.49-.17,4,1.52,8.6-.74,11.69-2,2.75-6.8,1.84-10.24,3-.32.1-.64.21-.94.33-20.56,8.18-32.91,23.22-35,45.19-2,21.59,6.9,38.82,25.64,49.92,18.45,10.92,37.32,10.17,55-1.89,17.5-11.91,25-29.17,22.6-50-2.47-21.47-19-41-42.63-44.9-3.21-.53-4.44-2-4.25-5.3.3-5.48.15-11,.18-16.48,7.83,0,15.66-.18,23.49,0,2.75,0,3.69-.66,3.67-3.56q-.17-32.51,0-65c0-2.91-.92-3.61-3.67-3.57-7.83.14-15.66,0-23.49,0,0-12.3.1-24.59-.21-36.88-.1-4.05,1.36-5.36,5.14-6.07a48.94,48.94,0,0,0,31.06-19.13c13-17.36,14.48-36.15,5.76-55.87,16.63-35.32-7.9-71.86-39-75.28-2.61-.29-3.1-1.73-3.06-4.07.14-7.48.07-15,.09-22.45,7.8-.05,15.6-.19,23.4-.07,2.78,0,4.08-.31,4.06-3.68q-.26-32.37,0-64.75c0-3.37-1.28-3.72-4.06-3.68-7.8.12-15.6,0-23.4,0,0-10.66.11-21.32-.14-32-.09-3.7.76-5.39,4.65-6.58A30.5,30.5,0,0,0,1481.7,2532c-4.28-11.16-13-17.21-24.33-20.05,0-13.33.18-26.67,0-40-.07-4,1.21-5,5.07-4.91,21,.29,42,.24,63,.49,3.32,0,4.48-.61,4.64-4.26.19-4.51-1.58-5-5.44-5q-134.93-.36-269.85-.94-125.68-.47-251.37-.8c-4.9,0-6.12-1.39-6-6.11.18-10.82-.26-21.65-.45-32.47.56-1.24,1.85-1.36,2.87-1.76,13.14-5.11,21.13-16,21.22-29s-7.86-24.29-21.35-29.36c-2.79-1-3.2-2.72-3.21-5.23,0-10.81-.22-21.62-.34-32.43,8.64-.05,17.28-.2,25.92-.1,2.81,0,4.09-.39,4.07-3.72q-.24-32.42,0-64.84c0-2.95-1-3.58-3.72-3.55-9,.11-17.94,0-26.92-.09-.1-8.49-.07-17-.36-25.47-.1-2.83.75-3.89,3.52-4.77,13.65-4.33,22.43-16.18,22.41-29.68a31,31,0,0,0-22.54-29.55c-3.37-1-4-2.56-4-5.56,0-13.15,0-26.31-.55-39.44-.19-4.91,1.23-6.44,6.08-7.4,22-4.38,36.33-17.85,41.47-39.51s-1.84-40.47-19.58-53.92c-17.5-13.26-36.68-14-56.26-3.82-5.09,2.65-8.82,7-13.5,10.1a61.79,61.79,0,0,1,6.06-19.42c6.52-13.34,14.34-25.84,28.8-31.73,5.82-2.38,7.79-4.79,7.31-11.46-1-13.09,0-26.3-.42-39.44-.15-5,1.3-5.86,6-5.86q121.87.16,243.76,0c2.77,0,5.37.7,5.35-4-.13-41.29,0-82.59,0-123.89.93-.33,1.85-.71,2.8-1,14.42-4.29,23.45-16.47,23-31.62-.32-12.3-6.45-26.1-25.66-31.42,0-41.65-.06-83.31.16-125,0-5-1.07-6.28-6.19-6.27-81,.19-161.92.08-242.88.25-5.26,0-6.42-1.43-6.41-6.54q.21-192.69.09-385.38c1.72-.61,3.44-1.21,5.15-1.84,14.87-5.48,22.21-20.89,17.23-35.93-3.62-11-12.09-16.09-22.38-19.2l0-25.84c9.3-.06,18.61-.26,27.91-.09,3.27.06,4.16-.9,4.14-4.16q-.21-31.92,0-63.84c0-3.25-.87-4.21-4.14-4.15-9.3.17-18.61,0-27.91-.09l0-30.84c1.72-.62,3.44-1.21,5.15-1.84,14.87-5.48,22.21-20.89,17.23-35.93-3.62-10.95-12.09-16.1-22.38-19.2,0-11.74-.05-23.47.08-35.2a10.26,10.26,0,0,0-2.15-6.81h397.05c1.84,0,3.67-.05,5.5-.05a7.87,7.87,0,0,0,5.38-2.27C1404.65,904.37,1403.62,899.24,1396.85,894.1Z" transform="translate(-469 -894)"/><path class="cls-1" d="M469.09,2454q0-777.68-.09-1555.36c0-3.75.84-4.62,4.59-4.6,36.16.16,72.32.1,108.47.1-3.72,2.74-7.36,5.69-5.41,11s6.32,6.36,11.38,6c1.15-.09,2.32,0,3.49,0H987.06a10.16,10.16,0,0,0-2.15,6.81c.11,11.73.06,23.46.07,35.2-1.55.56-3.11,1.13-4.67,1.68-15.18,5.44-22.63,20.26-17.83,35.59,3.48,11.12,11.93,16.64,22.5,19.7l0,30.84c-9.14.06-18.28.22-27.41.1-2.84,0-3.64.82-3.63,3.64q.17,32.43,0,64.84c0,2.83.79,3.68,3.63,3.64,9.13-.11,18.27,0,27.41.11l0,25.84-4.67,1.69c-15.18,5.43-22.63,20.26-17.83,35.58,3.48,11.13,11.93,16.65,22.5,19.7v429l-4.67,1.69c-15.18,5.43-22.63,20.25-17.83,35.58C966,1673.45,974.41,1679,985,1682l0,30.84c-9.14.06-18.28.22-27.41.1-2.84,0-3.64.82-3.63,3.65q.17,32.42,0,64.83c0,2.83.79,3.68,3.63,3.64,9.13-.11,18.27.05,27.41.11l0,25.84-4.67,1.69c-15.18,5.44-22.63,20.26-17.83,35.58C966,1859.43,974.41,1865,985,1868c0,29.11-.07,58.22,0,87.33,0,3-.72,4.76-3.64,6.05a32.58,32.58,0,0,0-8.84,5.48c-18.75,17.21-29.89,37.87-28.25,64.11a9.91,9.91,0,0,1-.41,1.44c-15.48,34.21,7.82,69.62,39.15,73.84,2.66.35,3,1.78,3,4.06.05,14.33.16,28.66.43,43,0,2.88-.88,4-3.66,4.73-14.42,3.95-23.88,16.07-23.81,30.11.08,14.27,9.73,26.21,24.62,30,2.93.74,3.54,2,3.52,4.75-.08,8.32.1,16.66.19,25-9.64.05-19.27.24-28.9.07-3.32-.05-4.56.61-4.53,4.28q.27,31.91,0,63.81c0,3.41,1.11,4.09,4.24,4.05,10-.13,19.93,0,29.89.09.1,10.65.07,21.31.38,32,.09,3-.74,4-3.64,4.46a27.32,27.32,0,0,0-14.29,6.57c-9.94,8.87-14.1,19.81-10,32.74,4.34,13.58,14.28,20.71,28.39,22.13.13,11,0,22,.52,33,.21,4.51-1,5.48-5.43,5.46q-254.49-1.11-509-2C473,2454.41,471.07,2454.12,469.09,2454Z" transform="translate(-469 -894)"/><path class="cls-1" d="M988,3105.91q-257.19,0-514.37.09c-3.75,0-4.59-.84-4.59-4.59q.17-318.73.09-637.45a3.31,3.31,0,0,1,.94-.33c19.82,0,39.65.18,59.47.11,3.57,0,3,2.12,3,4.25q0,22,.05,44a19.29,19.29,0,0,1-1.84.76c-14.8,4.09-24.29,15.44-24.63,29.49s8.61,26.05,23.26,30.55c2.76.85,3.23,2.15,3.21,4.58-.09,11.16-.07,22.32-.09,33.48-8.64,0-17.28.19-25.91,0-2.88-.05-3.57.91-3.56,3.66.1,21.6.14,43.21,0,64.81,0,3.4,1.35,3.68,4.08,3.64,8.47-.1,16.95,0,25.42.07,0,7.14-.19,14.3.13,21.42.17,3.62-1.09,4.77-4.53,5.41-19.81,3.7-33,15.53-39.92,34.18-5.93,16-3.27,31.3,5,45.87a49.64,49.64,0,0,0-5.67,31.82c3.75,23.43,19.32,39.32,42.66,44.31,2.74.58,4.29,1.5,4.2,4.83-.26,10.63-.16,21.28-.2,31.92-9,0-17.93.17-26.89,0-3,0-4.34.36-4.3,3.92q.27,32.13,0,64.26c0,3.56,1.33,4,4.3,3.93,9-.13,17.93,0,26.89,0,0,2.83.21,5.66.09,8.49-.17,4,1.52,8.6-.74,11.69-2,2.75-6.8,1.84-10.24,3-.32.1-.63.21-.94.33-20.56,8.18-32.93,23.22-35,45.18-2,21.57,6.93,38.75,25.62,49.94,16.57,9.92,33.92,10.17,50.82.75,17.15-9.56,26.26-24.53,27.18-44.21,1.17-25-17.15-49.32-43-53.38-3.22-.5-4.44-1.95-4.25-5.29.3-5.48.14-11,.18-16.48,9.16,0,18.33-.17,27.49,0,2.75,0,3.69-.66,3.67-3.56q-.18-32.51,0-65c0-2.91-.92-3.6-3.67-3.57-9.16.13-18.33,0-27.49,0,0-10.5.12-21-.21-31.49-.12-3.83,1.6-4.92,4.79-5.34a43.41,43.41,0,0,0,15-5.31c26.85-14.51,36.25-50.37,19.39-73.85a3.8,3.8,0,0,1,.2-1c17.42-33.36-5.31-72.29-38.4-76.26-2.58-.31-3.13-1.68-3.09-4,.14-7.49.07-15,.09-22.48,9.79-.05,19.59-.24,29.39,0,3.37.07,4.06-1,4-4.19q-.2-31.89,0-63.79c0-3.15-.68-4.26-4.06-4.19-9.79.21-19.59,0-29.38,0,0-10.66.11-21.32-.14-32-.09-3.7.76-5.39,4.65-6.58A30.5,30.5,0,0,0,565.94,2532c-4.28-11.16-13.05-17.21-24.33-20.05,0-14,.25-28-.07-42-.11-4.88.92-6.33,6.15-6.3q162.31.84,324.65,1.26c37.45.13,74.91.33,112.37.39,3.45,0,5,.59,5,4.59-.17,14,.07,28,.15,42-17.28,1.18-30.2,13.7-30.84,29.87s11.27,29.66,28.57,32c2.65.35,3.2,1.23,3.2,3.66,0,11.13.09,22.26.15,33.39-11.12.05-22.24.18-33.37.08-2.74,0-3.67.67-3.65,3.56q.17,32.39,0,64.77c0,3.22,1,3.82,4,3.79,11.29-.13,22.58,0,33.87,0,.07,6.15-.2,12.32.3,18.43.44,5.41-.39,8.8-6.88,8.71-2.52,0-5.15,1.19-7.59,2.2-29.22,12-41.21,43.16-28,72.58-.51,1.05-1,2.11-1.53,3.14-17.24,32.66-1.67,68.19,34.17,77.65,2.63.69,3.05,1.86,3,4.1-.09,11-.1,22-.14,33-9.16,0-18.32.17-27.49,0-2.74,0-3.69.64-3.68,3.55q.18,32.49,0,65c0,2.9.92,3.6,3.67,3.57,9.16-.13,18.32,0,27.48,0,.05,7.81,0,15.63.18,23.44,0,2.68-1.1,3.69-3.53,4.48-21.77,7-34.63,22.21-37.3,44.63-2.53,21.23,6.09,38.18,24,50.25C974.39,3101.87,981.3,3103.54,988,3105.91Z" transform="translate(-469 -894)"/><path class="cls-2" d="M987.06,911.1H591.52c-1.17,0-2.34-.07-3.49,0-5.06.37-9.47-.75-11.38-6s1.69-8.28,5.41-11h814.79c6.77,5.14,7.8,10.27,3,14.67a7.87,7.87,0,0,1-5.38,2.27c-1.83,0-3.66.05-5.5.05H987.06Z" transform="translate(-469 -894)"/><path class="cls-3" d="M989.86,2511.92c-.09-14-.33-28-.16-42,0-4-1.54-4.59-5-4.59-37.46-.06-74.92-.26-112.37-.39q-162.33-.57-324.65-1.26c-5.23,0-6.26,1.42-6.15,6.3.32,14,.09,28,.07,42h-9q0-22-.05-44c0-2.13.53-4.26-3-4.25-19.82.07-39.65-.06-59.47-.11a3.31,3.31,0,0,0-.94.33v-10c2,.16,4,.45,5.92.45q254.49,1,509,2c4.39,0,5.64-.95,5.43-5.46-.51-11-.39-22-.52-33l8,0c.19,10.82.63,21.65.45,32.47-.08,4.72,1.14,6.1,6,6.11q125.69.21,251.37.8,134.93.51,269.85.94c3.86,0,5.63.52,5.44,5-.16,3.65-1.32,4.3-4.64,4.26-21-.25-42-.2-63-.49-3.86,0-5.14.91-5.07,4.91.22,13.32.06,26.66,0,40l-9.26,0c.06-13.83.05-27.65.24-41.48,0-3.11-1.43-3.48-4-3.47-14,0-28,0-42-.09q-198.95-.7-397.88-1.39c-7.63,0-6.81-1.44-6.78,6.86.07,13.5.19,27,.29,40.49A23.74,23.74,0,0,0,989.86,2511.92Z" transform="translate(-469 -894)"/><path class="cls-4" d="M988,3105.91c-6.66-2.37-13.57-4-19.57-8.09-17.89-12.07-26.51-29-24-50.25,2.67-22.42,15.53-37.6,37.3-44.63,2.43-.79,3.58-1.8,3.53-4.48-.18-7.81-.13-15.63-.18-23.44h9.8c0,7.33,0,14.66-.18,22-.09,3.11,1.07,3.85,4,4,25.76,1.43,47.33,22.32,49.13,47.38,2,27.19-15.33,50.86-41.24,56.45-1,.2-2,0-2.64,1.06Zm50-52c.18-23.16-18.66-42.61-41.62-43-22.57-.34-42.32,19.07-42.22,42.25.11,23.73,17.82,42.41,41.78,42.51C1019.42,3095.8,1037.13,3077.42,1037.92,3053.89Z" transform="translate(-469 -894)"/><path class="cls-5" d="M985,1625.05v-429h9q0,192.69-.09,385.38c0,5.11,1.15,6.55,6.41,6.54,81-.17,161.92-.06,242.88-.25,5.12,0,6.22,1.31,6.19,6.27-.22,41.65-.14,83.31-.16,125l-8,.09q0-59.21,0-118.42c0-2.92.12-4.84-4-4.84q-119.64.2-239.29,0c-3.45,0-4.09,1.16-4,4.26.18,8.32.05,16.65,0,25Z" transform="translate(-469 -894)"/><path class="cls-6" d="M987.31,2247.83c-.09-8.33-.27-16.67-.19-25,0-2.73-.59-4-3.52-4.75-14.89-3.75-24.54-15.69-24.62-30-.07-14,9.39-26.16,23.81-30.11,2.78-.76,3.71-1.85,3.66-4.73-.27-14.32-.38-28.65-.43-43,0-2.28-.33-3.71-3-4.06-31.33-4.22-54.63-39.63-39.15-73.84a9.91,9.91,0,0,0,.41-1.44q3.9-6.08,7.79-12.16c4.68-3.12,8.41-7.45,13.5-10.1,19.58-10.2,38.76-9.44,56.26,3.82,17.74,13.45,24.75,32.17,19.58,53.92S1022,2101.58,1000,2106c-4.85,1-6.27,2.49-6.08,7.4.54,13.13.51,26.29.55,39.44,0,3,.61,4.57,4,5.56a31,31,0,0,1,22.54,29.55c0,13.5-8.76,25.35-22.41,29.68-2.77.88-3.62,1.94-3.52,4.77.29,8.49.26,17,.36,25.47ZM991,2012c-23,0-42,19.33-42,42.56s19.41,42.64,42.19,42.36a42.52,42.52,0,0,0,41.74-42.31C1033,2031.38,1013.93,2012,991,2012Z" transform="translate(-469 -894)"/><path class="cls-7" d="M991.71,2683.05c-11.29,0-22.58-.17-33.87,0-2.94,0-4-.57-4-3.79q.23-32.38,0-64.77c0-2.89.91-3.58,3.65-3.56,11.13.1,22.25,0,33.37-.08H999c7.66.05,15.31.19,23,.09,2.76,0,4.11.26,4.09,3.66q-.26,32.46,0,64.93c0,3-1,3.55-3.72,3.51-7.49-.12-15,0-22.46.08Z" transform="translate(-469 -894)"/><path class="cls-7" d="M1448.26,2683.06c-10.47,0-20.94-.22-31.4,0-3.33.06-4.1-1-4.08-4.16q.2-31.92,0-63.83c0-3.2.75-4.22,4.08-4.16,10.46.18,20.93,0,31.4,0h9.2c7.8,0,15.6.17,23.4,0,2.78,0,4.08.31,4.06,3.68q-.26,32.37,0,64.75c0,3.37-1.28,3.72-4.06,3.68-7.8-.12-15.6,0-23.4.06Z" transform="translate(-469 -894)"/><path class="cls-8" d="M985,1113.25c-9.14-.06-18.28-.22-27.41-.11-2.84,0-3.64-.81-3.63-3.64q.17-32.41,0-64.84c0-2.82.79-3.67,3.63-3.64,9.13.12,18.27,0,27.41-.1h9c9.3.06,18.61.26,27.91.09,3.27-.06,4.16.9,4.14,4.15q-.21,31.92,0,63.84c0,3.26-.87,4.22-4.14,4.16-9.3-.17-18.61,0-27.91.09Z" transform="translate(-469 -894)"/><path class="cls-7" d="M994.86,2975h-9.8c-9.16,0-18.32-.17-27.48,0-2.75,0-3.69-.67-3.67-3.57q.17-32.49,0-65c0-2.91.94-3.59,3.68-3.55,9.17.12,18.33,0,27.49,0h9.78c9.17,0,18.33.17,27.49,0,2.75,0,3.69.66,3.67,3.56q-.16,32.51,0,65c0,2.89-.91,3.6-3.66,3.57C1013.19,2974.85,1004,2975,994.86,2975Z" transform="translate(-469 -894)"/><path class="cls-8" d="M987.31,2247.83h8.06c9,.05,18,.2,26.92.09,2.72,0,3.74.6,3.72,3.55q-.18,32.43,0,64.84c0,3.33-1.26,3.75-4.07,3.72-8.64-.1-17.28,0-25.92.1h-8c-10-.05-19.93-.22-29.89-.09-3.13,0-4.27-.64-4.24-4.05q.24-31.9,0-63.81c0-3.67,1.21-4.33,4.53-4.28C968,2248.07,977.67,2247.88,987.31,2247.83Z" transform="translate(-469 -894)"/><path class="cls-7" d="M1457.73,2902.82c7.83,0,15.66.18,23.49,0,2.75,0,3.69.66,3.67,3.57q-.17,32.49,0,65c0,2.9-.92,3.6-3.67,3.56-7.83-.14-15.66,0-23.48,0H1448c-10.29,0-20.59-.16-30.88-.05-3,0-4.35-.34-4.31-3.92q.27-32.13,0-64.26c0-3.58,1.36-3.95,4.31-3.92,10.29.11,20.59,0,30.88,0Z" transform="translate(-469 -894)"/><path class="cls-5" d="M952.08,2018.81q-3.89,6.09-7.79,12.16c-1.64-26.24,9.5-46.9,28.25-64.11a32.58,32.58,0,0,1,8.84-5.48c2.92-1.29,3.65-3,3.64-6.05-.11-29.11,0-58.22,0-87.33h9c0,10,.25,20-.08,30-.15,4.22,1.07,5.13,5.18,5.12q118.39-.19,236.79,0c4.26,0,5.11-1.18,5.1-5.24-.08-38.31.08-76.61.16-114.92l7.89,0c0,41.3-.17,82.6,0,123.89,0,4.69-2.58,4-5.35,4q-121.89.08-243.76,0c-4.7,0-6.15.9-6,5.86.4,13.14-.53,26.35.42,39.44.48,6.67-1.49,9.08-7.31,11.46-14.46,5.89-22.28,18.39-28.8,31.73A61.79,61.79,0,0,0,952.08,2018.81Z" transform="translate(-469 -894)"/><path class="cls-9" d="M1457.46,2610.84h-9.2c0-11.14,0-22.28.09-33.42,0-2.37-.33-3.76-3.14-4.63-14.69-4.53-23.61-16.39-23.34-30.42s9.77-25.52,24.42-29.59a13.78,13.78,0,0,0,1.82-.77l9.26,0c11.28,2.84,20.05,8.89,24.33,20.05a30.5,30.5,0,0,1-19.73,40.25c-3.89,1.19-4.74,2.88-4.65,6.58C1457.57,2589.52,1457.44,2600.18,1457.46,2610.84Z" transform="translate(-469 -894)"/><path class="cls-10" d="M1448.26,2683.06h9.2c0,7.49,0,15-.09,22.46,0,2.34.45,3.78,3.06,4.07,31.15,3.42,55.68,40,39,75.27l-6.77,10.69c-.85.78-1.72,1.52-2.54,2.33-13.21,12.93-28.82,18.38-47.2,15.07-12.09-2.18-21.52-9-30-17.37l-6.75-10.7c-11.62-25.12-2.85-49,12-62.52a47.85,47.85,0,0,1,25.58-12.48c3.44-.5,4.76-1.69,4.59-5.36C1448.06,2697.38,1448.27,2690.22,1448.26,2683.06Zm-30.39,101.29c2.42,4.68,6.34,8,10.31,11.25,17.91,14.62,48.45,8.76,59.64-11.42a22.86,22.86,0,0,0,4.89-10.1c5.75-17.15-.8-36.5-16.15-47.73-13.2-9.65-34.26-9.65-47.43,0-15.37,11.27-21.9,30.57-16.15,47.72A26.14,26.14,0,0,0,1417.87,2784.35Z" transform="translate(-469 -894)"/><path class="cls-9" d="M988,2320.13h8c.12,10.81.29,21.62.34,32.43,0,2.51.42,4.19,3.21,5.23,13.49,5.07,21.43,16.19,21.35,29.36s-8.08,23.94-21.22,29c-1,.4-2.31.52-2.87,1.76l-8,0c-14.11-1.42-24-8.55-28.39-22.13-4.14-12.93,0-23.87,10-32.74a27.32,27.32,0,0,1,14.29-6.57c2.9-.44,3.73-1.49,3.64-4.46C988.09,2341.44,988.12,2330.78,988,2320.13Z" transform="translate(-469 -894)"/><path class="cls-9" d="M999,2610.81h-8.06c-.06-11.13-.2-22.26-.15-33.39,0-2.43-.55-3.31-3.2-3.66-17.3-2.31-29.2-15.77-28.57-32s13.56-28.69,30.84-29.87a23.77,23.77,0,0,1,8.17,1c9.8,3.29,17.11,9.43,20.82,19.18,5.89,15.47-1,31.83-16.48,38.93-3,1.35-3.75,2.87-3.68,5.9C998.93,2588.23,998.91,2599.52,999,2610.81Z" transform="translate(-469 -894)"/><path class="cls-10" d="M991.71,2683.05l8.13,0c0,7.31.27,14.63,0,21.93-.11,3.17,1,4.16,4,4.69,22.36,4,36.36,17.39,42.4,39,3.75,13.39,1.66,26.29-5.06,38.45-.79,1.43-1.43,3-2.13,4.44l-7.14,7.95c-9.71,8.29-20.59,13.79-33.6,14.32-17.09.7-30.77-6.42-42.27-18.49l-6.5-10.42c-13.21-29.42-1.22-60.55,28-72.58,2.44-1,5.07-2.24,7.59-2.2,6.49.09,7.32-3.3,6.88-8.71C991.51,2695.37,991.78,2689.2,991.71,2683.05ZM1027,2789.14a19.18,19.18,0,0,0,6.15-8.54c10.28-17.83,3.16-44.17-14.9-55.16-15.07-9.16-34.86-8.35-47.2,1.94-15.66,13-20.82,30.84-14.19,48.9a25.58,25.58,0,0,0,5.17,9.63c7.93,11.44,19.05,17.5,32.77,17.79C1007.59,2804,1018.89,2799.79,1027,2789.14Z" transform="translate(-469 -894)"/><path class="cls-4" d="M1448,2975h9.79c0,5.5.11,11-.19,16.48-.19,3.34,1,4.77,4.25,5.3,23.64,3.85,40.16,23.43,42.63,44.9,2.4,20.86-5.1,38.12-22.6,50-17.71,12.06-36.58,12.81-55,1.89-18.74-11.1-27.66-28.33-25.64-49.92,2-22,14.4-37,35-45.19.3-.12.62-.23.94-.33,3.44-1.14,8.22-.23,10.24-3,2.26-3.09.57-7.73.74-11.69C1448.16,2980.68,1448,2977.85,1448,2975ZM1494.8,3049c.26-23.12-18.54-42.6-41.53-43-22.55-.43-42.32,18.91-42.3,42.16,0,23.56,17.56,42.42,41.69,42.59C1476.08,3090.87,1494,3072.64,1494.8,3049Z" transform="translate(-469 -894)"/><path class="cls-11" d="M985,1010.08c-10.57-3.06-19-8.58-22.5-19.7-4.8-15.33,2.65-30.15,17.83-35.59,1.56-.55,3.12-1.12,4.67-1.69h9c10.29,3.1,18.76,8.25,22.38,19.2,5,15-2.36,30.45-17.23,35.93-1.71.63-3.43,1.22-5.15,1.84Z" transform="translate(-469 -894)"/><path class="cls-11" d="M993.94,1196.06h-9c-10.57-3-19-8.57-22.5-19.7-4.8-15.32,2.65-30.15,17.83-35.58l4.67-1.69h9c10.29,3.11,18.76,8.25,22.38,19.2,5,15-2.36,30.45-17.23,35.93C997.38,1194.85,995.66,1195.45,993.94,1196.06Z" transform="translate(-469 -894)"/><path class="cls-4" d="M949.54,2785l6.5,10.42a10.82,10.82,0,0,0-1.4,2c-5.85,14.47-5,28.66,4.1,41.28,9.43,13.15,22.53,19.19,39.3,17.56,25.82-2.52,44.24-31.27,33.87-56.7l7.14-7.95c6.16,9.24,7,19.7,5.44,30.1-3.78,24.51-21.29,41.38-46,45-3,.44-3.9,1.31-3.85,4.24.18,10.63.13,21.26.17,31.9h-9.79c0-11,0-22,.14-33,0-2.24-.4-3.41-3-4.1-35.84-9.46-51.41-45-34.17-77.65C948.55,2787.08,949,2786,949.54,2785Z" transform="translate(-469 -894)"/><path class="cls-4" d="M1492.71,2795.55l6.77-10.69c8.72,19.73,7.29,38.52-5.76,55.88a48.94,48.94,0,0,1-31.06,19.13c-3.78.71-5.24,2-5.14,6.07.31,12.29.18,24.58.21,36.88H1448c0-12.62,0-25.25.2-37.87.06-3.27-1.36-4.28-4.14-4.88-23.5-5.07-38.74-20.65-42.72-44.18-1.82-10.76.46-21.12,4.92-31l6.75,10.7c-4.4,16.17-1.51,30.62,10.46,42.72,11.73,11.85,26,15.08,41.67,10.5C1485.79,2842.76,1500.13,2820.15,1492.71,2795.55Z" transform="translate(-469 -894)"/><path class="cls-11" d="M1249,1783l-7.89,0c-4.82-1.71-9.95-2.66-14-6.17-9.9-8.59-13.89-19.39-11.43-32.19,2.72-14.08,11.74-22.28,25.5-25.54l8-.09c19.21,5.32,25.34,19.12,25.66,31.42.4,15.15-8.63,27.33-23,31.62C1250.83,1782.28,1249.91,1782.66,1249,1783Zm-24.07-32.15c-.09,12,8.92,22.05,19.8,22.17s20.08-9.8,20.17-21.8-8.91-22.06-19.79-22.17S1225,1738.84,1224.91,1750.84Z" transform="translate(-469 -894)"/><path class="cls-5" d="M993.94,953.11h-9c0-11.73,0-23.46-.07-35.19a10.16,10.16,0,0,1,2.15-6.81h4.81a10.26,10.26,0,0,1,2.15,6.81C993.89,929.64,994,941.37,993.94,953.11Z" transform="translate(-469 -894)"/><path class="cls-5" d="M985,1010.08h9l0,30.84h-9Z" transform="translate(-469 -894)"/><path class="cls-5" d="M993.94,1139.09h-9l0-25.84h9Z" transform="translate(-469 -894)"/><path class="cls-8" d="M985,1785.19c-9.14-.06-18.28-.22-27.41-.11-2.84,0-3.64-.81-3.63-3.64q.17-32.42,0-64.83c0-2.83.79-3.68,3.63-3.65,9.13.12,18.27,0,27.41-.1h9c9.3.06,18.61.26,27.91.09,3.27-.06,4.16.9,4.14,4.15q-.21,31.92,0,63.84c0,3.26-.87,4.22-4.14,4.16-9.3-.17-18.61,0-27.91.09Z" transform="translate(-469 -894)"/><path class="cls-11" d="M985,1625.05h9c1.72.61,3.44,1.2,5.15,1.84,15.42,5.74,22.86,22.09,16.78,37.33-4,9.93-12,15-21.93,17.8h-9c-10.57-3.06-19-8.57-22.5-19.7-4.8-15.33,2.65-30.15,17.83-35.58Z" transform="translate(-469 -894)"/><path class="cls-11" d="M993.94,1868h-9c-10.57-3-19-8.57-22.5-19.7-4.8-15.32,2.65-30.14,17.83-35.58L985,1811h9c1.72.61,3.44,1.21,5.15,1.84,15.42,5.74,22.86,22.09,16.78,37.33C1011.91,1860.13,1003.84,1865.25,993.94,1868Z" transform="translate(-469 -894)"/><path class="cls-5" d="M985,1682h9l0,30.84h-9Z" transform="translate(-469 -894)"/><path class="cls-5" d="M993.94,1811h-9l0-25.84h9Z" transform="translate(-469 -894)"/><path class="cls-7" d="M532.5,2683.06c-8.47,0-17-.17-25.42-.07-2.73,0-4.11-.24-4.08-3.64.17-21.6.13-43.21,0-64.81,0-2.75.68-3.71,3.56-3.66,8.63.15,17.27,0,25.91,0h9.2c9.79,0,19.59.23,29.38,0,3.38-.07,4.08,1,4.06,4.19q-.2,31.89,0,63.79c0,3.15-.68,4.26-4,4.19-9.8-.2-19.6,0-29.39,0Z" transform="translate(-469 -894)"/><path class="cls-7" d="M544,2902.82c9.16,0,18.33.17,27.49,0,2.75,0,3.69.66,3.67,3.57q-.18,32.49,0,65c0,2.9-.92,3.59-3.67,3.56-9.16-.13-18.33,0-27.49,0h-9.78c-9,0-17.93-.17-26.89,0-3,0-4.34-.37-4.3-3.93q.27-32.13,0-64.26c0-3.56,1.33-4,4.3-3.92,9,.12,17.93,0,26.89,0Z" transform="translate(-469 -894)"/><path class="cls-9" d="M541.7,2610.84h-9.2c0-11.16,0-22.32.09-33.48,0-2.43-.45-3.73-3.21-4.58-14.65-4.5-23.61-16.49-23.26-30.55s9.83-25.4,24.63-29.49a19.29,19.29,0,0,0,1.84-.76h9c11.28,2.84,20,8.89,24.33,20.05a30.5,30.5,0,0,1-19.73,40.25c-3.89,1.19-4.74,2.88-4.65,6.58C541.81,2589.52,541.68,2600.18,541.7,2610.84Z" transform="translate(-469 -894)"/><path class="cls-10" d="M532.5,2683.06h9.2c0,7.5,0,15-.09,22.49,0,2.37.51,3.74,3.09,4,33.09,4,55.82,42.9,38.4,76.26a3.79,3.79,0,0,0-.2,1l-6,8.85c-1,.89-2,1.75-2.91,2.65-13.23,12.62-28.74,17.91-46.92,14.6-10.46-1.9-19-7.52-26.9-14.19l-7-8.81c-8.29-14.57-10.95-29.89-5-45.87,6.92-18.65,20.11-30.48,39.92-34.18,3.44-.64,4.7-1.79,4.53-5.41C532.31,2697.36,532.51,2690.2,532.5,2683.06Zm37.76,103.82c2.84-2.75,4.26-6.32,5.73-9.86,7.55-20.37-.33-42.71-18.55-52.62-19.55-10.62-42.42-5.11-55.14,13.28-8.38,12.13-9.48,31.63-2.38,42.58a18.23,18.23,0,0,0,5.92,8.8C520.66,2808.47,554.22,2809.49,570.26,2786.88Z" transform="translate(-469 -894)"/><path class="cls-4" d="M534.19,2975H544c0,5.5.12,11-.18,16.48-.19,3.34,1,4.79,4.25,5.29,25.83,4.06,44.15,28.38,43,53.38-.92,19.68-10,34.65-27.18,44.21-16.9,9.42-34.25,9.17-50.82-.75-18.69-11.19-27.61-28.37-25.62-49.94,2-22,14.4-37,35-45.18.31-.12.62-.23.94-.33,3.44-1.14,8.22-.23,10.24-3,2.26-3.09.57-7.73.74-11.69C534.4,2980.68,534.23,2977.85,534.19,2975ZM581,3049.27c-.13-23.36-17.29-42.72-41.22-43.21-22.59-.46-42.06,16.94-42.54,41.74-.45,22.9,16.56,42.44,41.33,42.89C561.49,3091.11,580,3073.43,581,3049.27Z" transform="translate(-469 -894)"/><path class="cls-4" d="M576.9,2795.69l6-8.85c16.86,23.47,7.46,59.33-19.39,73.84a43.41,43.41,0,0,1-15,5.31c-3.19.42-4.91,1.51-4.79,5.34.33,10.49.18,21,.21,31.49h-9.78c0-10.64-.06-21.29.2-31.92.09-3.33-1.46-4.25-4.2-4.83-23.34-5-38.91-20.88-42.66-44.31a49.64,49.64,0,0,1,5.67-31.82l7,8.81c-5.66,16.66-3.48,31.86,8.86,44.87a41.37,41.37,0,0,0,67-9.4C582.67,2821.53,582.15,2808.66,576.9,2795.69Z" transform="translate(-469 -894)"/><path class="cls-12" d="M1037.92,3053.89c-.79,23.53-18.5,41.91-42.06,41.8-24-.1-41.67-18.78-41.78-42.51-.1-23.18,19.65-42.59,42.22-42.25C1019.26,3011.28,1038.1,3030.73,1037.92,3053.89Z" transform="translate(-469 -894)"/><path class="cls-1" d="M993.94,1811l0-25.84c9.3-.06,18.61-.26,27.91-.09,3.27.06,4.16-.9,4.14-4.16q-.21-31.92,0-63.84c0-3.25-.87-4.21-4.14-4.15-9.3.17-18.61,0-27.91-.09l0-30.84c9.9-2.75,18-7.87,21.93-17.8,6.08-15.24-1.36-31.59-16.78-37.33-1.71-.64-3.43-1.23-5.15-1.84,0-8.33.14-16.66,0-25-.06-3.1.58-4.26,4-4.26q119.64.15,239.29,0c4.11,0,4,1.92,4,4.84q-.09,59.2,0,118.42c-13.76,3.26-22.78,11.46-25.5,25.54-2.46,12.8,1.53,23.6,11.43,32.19,4.05,3.51,9.18,4.46,14,6.17-.08,38.31-.24,76.61-.16,114.92,0,4.06-.84,5.24-5.1,5.24q-118.39-.21-236.79,0c-4.11,0-5.33-.9-5.18-5.12.33-10,.09-20,.08-30,9.9-2.75,18-7.87,21.93-17.8,6.08-15.24-1.36-31.59-16.78-37.33C997.38,1812.24,995.66,1811.64,993.94,1811Z" transform="translate(-469 -894)"/><path class="cls-13" d="M991,2012c22.94,0,42,19.35,41.94,42.61A42.52,42.52,0,0,1,991.19,2097c-22.78.28-42.14-19.15-42.19-42.36S968,2012,991,2012Z" transform="translate(-469 -894)"/><path class="cls-13" d="M1413,2774.08c-5.75-17.16.78-36.46,16.15-47.73,13.17-9.65,34.23-9.65,47.43,0,15.35,11.23,21.9,30.58,16.15,47.72a29.52,29.52,0,0,1-2.27-1.89c-14.69-14.58-32-19.43-52.08-14.15C1428.26,2760.69,1420.29,2766.9,1413,2774.08Z" transform="translate(-469 -894)"/><path class="cls-13" d="M1492.71,2795.55c7.42,24.6-6.92,47.21-27.62,53.25-15.66,4.58-29.94,1.35-41.67-10.5-12-12.1-14.86-26.55-10.46-42.72,8.49,8.4,17.92,15.19,30,17.37,18.38,3.31,34-2.14,47.2-15.07C1491,2797.07,1491.86,2796.33,1492.71,2795.55Z" transform="translate(-469 -894)"/><path class="cls-13" d="M1487.82,2784.18c-11.19,20.18-41.73,26-59.64,11.42-4-3.24-7.89-6.57-10.31-11.25,1.49-1.57,3-3.1,4.44-4.72,12.28-14,33.16-17.55,49.66-8.92C1478.38,2774.07,1482.68,2779.53,1487.82,2784.18Z" transform="translate(-469 -894)"/><path class="cls-4" d="M1487.82,2784.18c-5.14-4.65-9.44-10.11-15.85-13.47-16.5-8.63-37.38-5.08-49.66,8.92-1.42,1.62-3,3.15-4.44,4.72a26.14,26.14,0,0,1-4.89-10.28c7.31-7.17,15.28-13.38,25.38-16,20-5.28,37.39-.43,52.08,14.15a29.52,29.52,0,0,0,2.27,1.89A22.84,22.84,0,0,1,1487.82,2784.18Z" transform="translate(-469 -894)"/><path class="cls-13" d="M956.86,2776.28c-6.63-18.06-1.47-35.85,14.19-48.9,12.34-10.29,32.13-11.1,47.2-1.94,18.06,11,25.18,37.33,14.9,55.16-1.08-1-2.2-2-3.25-3.06A51,51,0,0,0,992,2762C978.4,2762.11,967,2767.6,956.86,2776.28Z" transform="translate(-469 -894)"/><path class="cls-12" d="M1031.91,2799.56c10.37,25.43-8.05,54.18-33.87,56.7-16.77,1.63-29.87-4.41-39.3-17.56-9.06-12.62-10-26.81-4.1-41.28a10.82,10.82,0,0,1,1.4-2c11.5,12.07,25.18,19.19,42.27,18.49C1011.32,2813.35,1022.2,2807.85,1031.91,2799.56Z" transform="translate(-469 -894)"/><path class="cls-13" d="M1027,2789.14c-8.11,10.65-19.41,14.84-32.2,14.56-13.72-.29-24.84-6.35-32.77-17.79q19.59-20.25,46.22-11C1016,2777.58,1021.44,2783.48,1027,2789.14Z" transform="translate(-469 -894)"/><path class="cls-4" d="M1027,2789.14c-5.56-5.66-11-11.56-18.75-14.25q-26.58-9.22-46.22,11a25.58,25.58,0,0,1-5.17-9.63C967,2767.6,978.4,2762.11,992,2762a51,51,0,0,1,38,15.57c1,1.05,2.17,2,3.25,3.06A19.18,19.18,0,0,1,1027,2789.14Z" transform="translate(-469 -894)"/><path class="cls-12" d="M1494.8,3049c-.85,23.67-18.72,41.9-42.14,41.72-24.13-.17-41.67-19-41.69-42.59,0-23.25,19.75-42.59,42.3-42.16C1476.26,3006.37,1495.06,3025.85,1494.8,3049Z" transform="translate(-469 -894)"/><path class="cls-13" d="M1224.91,1750.84c.1-12,9.27-21.91,20.18-21.8s19.87,10.18,19.79,22.17-9.26,21.91-20.17,21.8S1224.82,1762.81,1224.91,1750.84Z" transform="translate(-469 -894)"/><path class="cls-12" d="M576.9,2795.69c5.25,13,5.77,25.84-.85,38.53a41.37,41.37,0,0,1-67,9.4c-12.34-13-14.52-28.21-8.86-44.87,7.95,6.67,16.44,12.29,26.9,14.19,18.18,3.31,33.69-2,46.92-14.6C574.94,2797.44,575.93,2796.58,576.9,2795.69Z" transform="translate(-469 -894)"/><path class="cls-13" d="M499.91,2780.26c-7.09-11-6-30.45,2.39-42.58,12.72-18.39,35.59-23.9,55.14-13.28,18.22,9.91,26.1,32.25,18.55,52.62-.89-.72-1.83-1.41-2.68-2.17C551.91,2755.73,517.67,2758.25,499.91,2780.26Z" transform="translate(-469 -894)"/><path class="cls-13" d="M570.26,2786.88c-16,22.61-49.6,21.59-64.42,2.18,7.37-10.12,17.35-16,29.77-16.85C549.48,2771.23,561.45,2775.53,570.26,2786.88Z" transform="translate(-469 -894)"/><path class="cls-4" d="M570.26,2786.88c-8.81-11.35-20.78-15.65-34.65-14.67-12.42.88-22.4,6.73-29.77,16.85a18.23,18.23,0,0,1-5.92-8.8c17.75-22,52-24.53,73.39-5.41.85.76,1.79,1.45,2.68,2.17C574.52,2780.56,573.1,2784.13,570.26,2786.88Z" transform="translate(-469 -894)"/><path class="cls-12" d="M581,3049.27c-1.07,24.16-19.54,41.84-42.43,41.42-24.77-.45-41.78-20-41.33-42.89.48-24.8,20-42.2,42.54-41.74C563.74,3006.55,580.9,3025.91,581,3049.27Z" transform="translate(-469 -894)"/></svg>